# xmcd
# 
# Track frame offsets:
#     150
#     12607
#     30610
#     54139
#     68962
#     83497
#     98867
#     115500
#     127360
#     146502
#     164100
#     189300
#     203145
#     216945
#     229650
#     240457
# 
# Disc length: 3456
# 
# Revision: 2
# Processed by: cddbd v1.5.2PL0 Copyright (c) Steve Scherf et al.
# Submitted via: fre:ac v1.0.17
# 
DISCID=dd0d7e10
DTITLE=Jimi Hendrix - Best Of
DYEAR=0
DGENRE=
TTITLE0=Purple Haze
TTITLE1=All Along The Watchtower
TTITLE2=Voodoo Chile
TTITLE3=The Wind Cries Mary
TTITLE4=Foxy Lady
TTITLE5=Hey Joe
TTITLE6=Gypsy Eyes
TTITLE7=Fire
TTITLE8=Angel
TTITLE9=Red House
TTITLE10=If 6 Was 9
TTITLE11=Spanish Castle Magic
TTITLE12=Wait Until Tomorrow
TTITLE13=You Got Me Floatin'
TTITLE14=Little Miss Lover
TTITLE15=Bold As Love
EXTD=
EXTT0=
EXTT1=
EXTT2=
EXTT3=
EXTT4=
EXTT5=
EXTT6=
EXTT7=
EXTT8=
EXTT9=
EXTT10=
EXTT11=
EXTT12=
EXTT13=
EXTT14=
EXTT15=
PLAYORDER=
